<svg width="998" height="1024" viewBox="0 0 998 1024" fill="none" xmlns="http://www.w3.org/2000/svg">
<path d="M252 164.5C97.2001 151.3 34.8335 49.3333 23.0001 0H998V1023.5H252C213.2 756.7 388.166 674.029 479 656.5C707 612.5 603.828 448.868 520 443.5C418.5 437 412 418 394.5 400C381.548 386.678 381.261 335.5 387 299.5C398 230.5 298.741 172.733 252 164.5Z" fill="#E8A881"/>
<path d="M441.877 613.972C411.449 565.149 417.514 476.465 425.469 438.611C456.047 438.611 506.76 518.18 506.76 552.943C525.852 600.53 515.212 682.983 509.743 712.081C509.743 712.081 492.59 707.703 490.353 704.356C454.555 719.806 489.358 723.926 499.302 728.304C512.428 733.248 539.112 718.519 559 712.081C559 712.081 571.223 730.395 566.5 734L425.469 819.46C357.454 854.687 261.397 856.283 221.871 852.678C71.5205 855.768 12.0568 795.77 1.11874 765.384C-7 724.5 38.4999 703 49 693C63.1751 679.5 178.63 629.5 254 629.5L400.859 607.019C402.052 625.56 406.079 638.177 409.808 638.692C431.883 636.22 438.645 621.182 441.877 613.972Z" fill="#160701"/>
<path d="M685.748 775.427C753.614 738.347 746.156 674.485 739.444 652.598L696.935 668.82C699.918 705.283 678.539 732.424 665.612 738.347C622.655 744.527 603.463 716.974 599.983 702.811L552.998 715.944C578.057 782.689 652.685 785.212 685.748 775.427Z" fill="#AF6131"/>
<path d="M706.63 349L406.079 427.796C455.003 439.539 489.11 505.305 500.048 536.721C528.686 623.86 511.98 704.871 500.048 734.484L793.887 641.782C848.776 477.392 758.586 378.098 706.63 349Z" fill="#AF6131"/>
<path d="M388.926 593.114C366.553 472.602 387.435 441.702 406.825 427.796L420.249 431.659L430.69 438.612C405.035 580.754 471.211 679.121 508.251 709.764L506.014 722.896L500.048 734.484C442.623 711.309 394.663 624.015 388.926 593.114Z" fill="#AF6131"/>
<path d="M390.418 651.053C419.056 657.233 444.114 629.422 453.063 614.744L498.556 687.361C474.691 690.451 462.759 720.064 459.775 734.484L390.418 651.053Z" fill="#160701"/>
</svg>
